<svg xmlns="http://www.w3.org/2000/svg" xmlns:xlink="http://www.w3.org/1999/xlink" version="1.1" height="1452.2013952668651" width="3000"><g transform="scale(11.580964731683618)"><g id="SvgjsG1028" rel="mainfill" transform="translate(-0.4951702356338501,82.86376667022705)" fill="#004466"><path fill="#004466" d="M13.687 32.01956588611798 l-8.4539 0 l-1.5174 5.1405 q-0.4025673804 0.06193344314 -0.8051347609 0.09290016472 t-0.80513 0.030967 q-0.433534102 0 -0.8515848432 -0.03096672157 t-0.75868 -0.0929 l7.2462 -22.265 q0.4025673804 -0.06193344314 0.867068204 -0.09290016472 t0.95997 -0.030967 q0.433534102 0 0.8980349256 0.03096672157 t0.89803 0.0929 l7.2152 22.265 q-0.3716006589 0.06193344314 -0.8361014824 0.09290016472 t-0.89803 0.030967 q-0.4025673804 0 -0.8206181217 -0.03096672157 t-0.78965 -0.0929 z M6.0695 29.263565886117984 l6.7817 0 l-3.4063 -11.365 z M20.464044000887505 14.461065886117982 q0.3406339373 -0.06193344314 0.7586846785 -0.09290016472 t0.75868 -0.030967 t0.75868 0.030967 t0.75868 0.0929 l0 17.899 q0 0.867068204 0.1548336079 1.362535749 t0.41805 0.75868 t0.61933 0.34063 t0.75868 0.077417 q0.2787004941 0 0.6348177922 -0.03096672157 t0.60385 -0.0929 q0.2787004941 1.083835255 0.2787004941 2.353470839 q-0.433534102 0.1548336079 -1.052868533 0.2012836902 t-1.1458 0.04645 q-0.8980349256 0 -1.672202965 -0.216767051 t-1.3625 -0.71223 t-0.929 -1.3316 t-0.34063 -2.0748 l0 -18.58 z M27.11693382038198 36.726535886117986 l8.361 -13.006 l-7.3701 0 q-0.09290016472 -0.5574009883 -0.09290016472 -1.238668863 q0 -0.650301153 0.09290016472 -1.207702141 l11.922 0 l0.15483 0.40257 l-8.4229 13.037 l7.8965 0 q0.09290016472 0.6193344314 0.09290016472 1.269635584 q0 0.6193344314 -0.09290016472 1.17673542 l-12.387 0 z M42.37860680122239 14.461065886117982 q0.3406339373 -0.06193344314 0.7586846785 -0.09290016472 t0.75868 -0.030967 t0.77417 0.030967 t0.77417 0.0929 l0 9.2281 q0.2787004941 -0.433534102 0.6967512354 -0.9290016472 t1.0219 -0.91352 t1.3935 -0.68127 t1.7496 -0.26322 q2.725071498 0 4.041157165 1.563819439 t1.3161 4.6295 l0 10.064 q-0.3406339373 0.06193344314 -0.7586846785 0.09290016472 t-0.75868 0.030967 t-0.75868 -0.030967 t-0.75868 -0.0929 l0 -9.2281 q0 -2.198637232 -0.7277179569 -3.236022404 t-2.2141 -1.0374 q-0.8361014824 0 -1.610269522 0.2941838549 t-1.3625 0.929 t-0.929 1.6567 t-0.34063 2.4773 l0 8.1442 q-0.3406339373 0.06193344314 -0.7741680393 0.09290016472 t-0.77417 0.030967 q-0.3096672157 0 -0.7432013177 -0.03096672157 t-0.77417 -0.0929 l0 -22.699 z M61.54204866081106 29.975765886117983 q0.06193344314 2.601204612 1.347052388 3.808906753 t3.7934 1.2077 q2.198637232 0 4.180507412 -0.7741680393 q0.2477337726 0.4645008236 0.4025673804 1.130285337 t0.1858 1.3161 q-1.021901812 0.433534102 -2.245087314 0.650301153 t-2.7096 0.21677 q-2.16767051 0 -3.716006589 -0.6038510706 t-2.5548 -1.7032 t-1.4709 -2.6012 t-0.4645 -3.298 q0 -1.76510313 0.4490174628 -3.297955847 t1.378 -2.6631 t2.338 -1.7961 t3.3289 -0.66578 q1.641236243 0 2.879905106 0.5574009883 t2.0748 1.5329 t1.2696 2.3225 t0.43353 2.9264 q0 0.433534102 -0.03096672157 0.9135182864 t-0.061933 0.82062 l-10.807 0 z M69.40714866081106 27.684265886117984 q0 -0.867068204 -0.2322504118 -1.656719604 t-0.68127 -1.378 t-1.1458 -0.94449 t-1.6567 -0.35612 q-1.888970016 0 -2.895388467 1.145768698 t-1.2232 3.1896 l7.8346 0 z M76.33912264582091 23.689065886117984 l-2.0128 0 q-0.06193344314 -0.2477337726 -0.09290016472 -0.5728843491 t-0.030967 -0.63482 t0.030967 -0.63482 t0.0929 -0.57288 l5.0166 0 l0 15.886 q-0.3406339373 0.06193344314 -0.7586846785 0.09290016472 t-0.75868 0.030967 q-0.3096672157 0 -0.7277179569 -0.03096672157 t-0.75868 -0.0929 l0 -13.471 z M75.6579226458209 17.775065886117982 q-0.06193344314 -0.3716006589 -0.07741680393 -0.8051347609 t-0.015483 -0.77417 t0.015483 -0.77417 t0.077417 -0.77417 q0.4025673804 -0.06193344314 0.867068204 -0.09290016472 t0.80513 -0.030967 t0.80513 0.030967 t0.8361 0.0929 q0.06193344314 0.3406339373 0.07741680393 0.7741680393 t0.015483 0.77417 t-0.015483 0.77417 t-0.077417 0.80513 q-0.3716006589 0.06193344314 -0.8206181217 0.09290016472 t-0.78965 0.030967 q-0.3716006589 0 -0.8361014824 -0.03096672157 t-0.86707 -0.0929 z M83.27071524959773 21.274065886117985 q0.3406339373 -0.06193344314 0.6657845138 -0.09290016472 t0.66578 -0.030967 t0.63482 0.030967 t0.63482 0.0929 q0.09290016472 0.4645008236 0.1858003294 1.223185502 t0.0929 1.2851 q0.2787004941 -0.5574009883 0.6967512354 -1.068351894 t0.99094 -0.91352 t1.3161 -0.6503 t1.6412 -0.24773 q1.858003294 0 2.864421745 0.7586846785 t1.5329 2.1212 q0.3096672157 -0.5264342667 0.7586846785 -1.052868533 t1.0064 -0.929 t1.2696 -0.6503 t1.6103 -0.24773 q2.75603822 0 4.010190444 1.548336079 t1.2542 4.5831 l0 10.126 q-0.3406339373 0.06193344314 -0.7741680393 0.09290016472 t-0.77417 0.030967 t-0.75868 -0.030967 t-0.75868 -0.0929 l0 -9.2281 q0 -2.136703788 -0.650301153 -3.205055683 t-2.1367 -1.0684 q-1.5793028 0 -2.55475453 1.145768698 t-0.97545 3.3754 l0 8.9803 q-0.3406339373 0.06193344314 -0.7586846785 0.09290016472 t-0.75868 0.030967 t-0.75868 -0.030967 t-0.75868 -0.0929 l0 -9.4449 q0 -2.074770345 -0.6193344314 -3.112155518 t-1.9819 -1.0374 q-0.7741680393 0 -1.455435914 0.3406339373 t-1.1922 1.0219 t-0.80513 1.7187 t-0.29418 2.3999 l0 8.1133 q-0.3406339373 0.06193344314 -0.7586846785 0.09290016472 t-0.75868 0.030967 t-0.77417 -0.030967 t-0.77417 -0.0929 l0 -15.886 z M110.95007226299354 29.975765886117983 q0.06193344314 2.601204612 1.347052388 3.808906753 t3.7934 1.2077 q2.198637232 0 4.180507412 -0.7741680393 q0.2477337726 0.4645008236 0.4025673804 1.130285337 t0.1858 1.3161 q-1.021901812 0.433534102 -2.245087314 0.650301153 t-2.7096 0.21677 q-2.16767051 0 -3.716006589 -0.6038510706 t-2.5548 -1.7032 t-1.4709 -2.6012 t-0.4645 -3.298 q0 -1.76510313 0.4490174628 -3.297955847 t1.378 -2.6631 t2.338 -1.7961 t3.3289 -0.66578 q1.641236243 0 2.879905106 0.5574009883 t2.0748 1.5329 t1.2696 2.3225 t0.43353 2.9264 q0 0.433534102 -0.03096672157 0.9135182864 t-0.061933 0.82062 l-10.807 0 z M118.81517226299354 27.684265886117984 q0 -0.867068204 -0.2322504118 -1.656719604 t-0.68127 -1.378 t-1.1458 -0.94449 t-1.6567 -0.35612 q-1.888970016 0 -2.895388467 1.145768698 t-1.2232 3.1896 l7.8346 0 z M124.81814624800339 21.274065886117985 q0.3406339373 -0.06193344314 0.650301153 -0.09290016472 t0.6503 -0.030967 t0.68127 0.030967 t0.61933 0.0929 q0.09290016472 0.4645008236 0.1858003294 1.223185502 t0.0929 1.2851 q0.650301153 -1.052868533 1.718653047 -1.827036573 t2.7406 -0.77417 q0.2477337726 0 0.5109509059 0.01548336079 t0.44902 0.04645 q0.06193344314 0.2787004941 0.09290016472 0.5883677099 t0.030967 0.6503 q0 0.3716006589 -0.04645008236 0.7741680393 t-0.10838 0.77417 q-0.2477337726 -0.06193344314 -0.5109509059 -0.06193344314 l-0.41805 0 q-0.8361014824 0 -1.594786161 0.2322504118 t-1.3625 0.82062 t-0.95997 1.6103 t-0.35612 2.6322 l0 7.8965 q-0.3406339373 0.06193344314 -0.7586846785 0.09290016472 t-0.75868 0.030967 t-0.75868 -0.030967 t-0.78965 -0.0929 l0 -15.886 z  M141.83993326742527 14.895065886117983 q1.052868533 -0.1238668863 2.539271169 -0.2322504118 t2.9109 -0.10838 q5.852710377 0 8.748098844 2.972805271 t2.8954 8.5468 q0 5.821743655 -2.95732191 8.639715319 t-8.81 2.818 q-1.455435914 0 -2.879905106 -0.1083835255 t-2.4464 -0.26322 l0 -22.265 z M144.99853326742527 34.558865886117985 q0.433534102 0.06193344314 1.068351894 0.1083835255 t1.3471 0.04645 q1.827036573 0 3.328922569 -0.4180507412 t2.5857 -1.409 t1.6722 -2.6786 t0.58837 -4.227 q0 -2.322504118 -0.5883677099 -3.963740361 t-1.6567 -2.6786 t-2.5548 -1.5019 t-3.2825 -0.4645 q-0.5883677099 0 -1.285118945 0.01548336079 t-1.2232 0.10838 l0 17.063 z M170.5408484371975 29.697065886117983 q-0.4645008236 -0.06193344314 -1.17673542 -0.1238668863 t-1.2077 -0.061933 q-1.919936737 0 -2.926355189 0.7122345962 t-1.0064 2.1677 q0 0.9290016472 0.3406339373 1.455435914 t0.85158 0.80513 t1.1303 0.34063 t1.1767 0.061933 q0.7122345962 0 1.470919275 -0.07741680393 t1.3471 -0.23225 l0 -5.0476 z M170.5408484371975 26.693065886117985 q0 -1.827036573 -0.9290016472 -2.539271169 t-2.6941 -0.71223 q-1.083835255 0 -2.028320263 0.1703169686 t-1.8425 0.44902 q-0.5883677099 -1.021901812 -0.5883677099 -2.446371004 q1.052868533 -0.3406339373 2.322504118 -0.5264342667 t2.4464 -0.1858 q3.096672157 0 4.706941679 1.408985832 t1.6103 4.5057 l0 9.9403 q-1.083835255 0.2477337726 -2.632171334 0.5109509059 t-3.1586 0.26322 q-1.517369357 0 -2.740554859 -0.2787004941 t-2.0748 -0.89803 t-1.3161 -1.5793 t-0.4645 -2.3225 q0 -1.331569028 0.5419176275 -2.337987479 t1.4709 -1.6722 t2.1367 -0.99094 t2.5393 -0.32515 q0.9909350903 0 1.625752883 0.04645008236 t1.0684 0.10838 l0 -0.58837 z M177.68952028090848 23.720065886117986 l-2.4154 0 l-0.12387 -0.43353 l5.3263 -5.9456 l0.24773 0 l0 3.9328 l4.0257 0 q0.1238668863 0.5264342667 0.1238668863 1.17673542 q0 0.3406339373 -0.03096672157 0.650301153 t-0.0929 0.61933 l-4.0257 0 l0 7.2462 q0 1.300602306 0.1083835255 2.074770345 t0.3716 1.1922 t0.71223 0.5574 t1.1303 0.13935 q0.5264342667 0 0.9909350903 -0.07741680393 t0.8361 -0.17032 q0.216767051 0.6193344314 0.2632171334 1.269635584 t0.04645 1.1458 q-0.6193344314 0.1548336079 -1.300602306 0.2322504118 t-1.4554 0.077417 q-2.229603953 0 -3.483756177 -1.083835255 t-1.2542 -3.5921 l0 -9.0113 z M195.52108339470885 29.697065886117983 q-0.4645008236 -0.06193344314 -1.17673542 -0.1238668863 t-1.2077 -0.061933 q-1.919936737 0 -2.926355189 0.7122345962 t-1.0064 2.1677 q0 0.9290016472 0.3406339373 1.455435914 t0.85158 0.80513 t1.1303 0.34063 t1.1767 0.061933 q0.7122345962 0 1.470919275 -0.07741680393 t1.3471 -0.23225 l0 -5.0476 z M195.52108339470885 26.693065886117985 q0 -1.827036573 -0.9290016472 -2.539271169 t-2.6941 -0.71223 q-1.083835255 0 -2.028320263 0.1703169686 t-1.8425 0.44902 q-0.5883677099 -1.021901812 -0.5883677099 -2.446371004 q1.052868533 -0.3406339373 2.322504118 -0.5264342667 t2.4464 -0.1858 q3.096672157 0 4.706941679 1.408985832 t1.6103 4.5057 l0 9.9403 q-1.083835255 0.2477337726 -2.632171334 0.5109509059 t-3.1586 0.26322 q-1.517369357 0 -2.740554859 -0.2787004941 t-2.0748 -0.89803 t-1.3161 -1.5793 t-0.4645 -2.3225 q0 -1.331569028 0.5419176275 -2.337987479 t1.4709 -1.6722 t2.1367 -0.99094 t2.5393 -0.32515 q0.9909350903 0 1.625752883 0.04645008236 t1.0684 0.10838 l0 -0.58837 z M202.32915523841984 14.895065886117983 q0.3406339373 -0.06193344314 0.7277179569 -0.09290016472 t0.82062 -0.030967 q0.4025673804 0 0.8051347609 0.03096672157 t0.77417 0.0929 l0 19.478 l8.7326 0 q0.06193344314 0.3406339373 0.07741680393 0.7122345962 t0.015483 0.68127 q0 0.7432013177 -0.09290016472 1.393502471 l-11.86 0 l0 -22.265 z M218.64365920755202 29.975765886117983 q0.06193344314 2.601204612 1.347052388 3.808906753 t3.7934 1.2077 q2.198637232 0 4.180507412 -0.7741680393 q0.2477337726 0.4645008236 0.4025673804 1.130285337 t0.1858 1.3161 q-1.021901812 0.433534102 -2.245087314 0.650301153 t-2.7096 0.21677 q-2.16767051 0 -3.716006589 -0.6038510706 t-2.5548 -1.7032 t-1.4709 -2.6012 t-0.4645 -3.298 q0 -1.76510313 0.4490174628 -3.297955847 t1.378 -2.6631 t2.338 -1.7961 t3.3289 -0.66578 q1.641236243 0 2.879905106 0.5574009883 t2.0748 1.5329 t1.2696 2.3225 t0.43353 2.9264 q0 0.433534102 -0.03096672157 0.9135182864 t-0.061933 0.82062 l-10.807 0 z M226.50875920755203 27.684265886117984 q0 -0.867068204 -0.2322504118 -1.656719604 t-0.68127 -1.378 t-1.1458 -0.94449 t-1.6567 -0.35612 q-1.888970016 0 -2.895388467 1.145768698 t-1.2232 3.1896 l7.8346 0 z M232.51173319256188 21.274065886117985 q0.3406339373 -0.06193344314 0.6657845138 -0.09290016472 t0.66578 -0.030967 t0.63482 0.030967 t0.63482 0.0929 q0.09290016472 0.4645008236 0.1858003294 1.254152224 t0.0929 1.3161 q0.3096672157 -0.5264342667 0.7896514001 -1.052868533 t1.0993 -0.94449 t1.4245 -0.68127 t1.7651 -0.26322 q2.725071498 0 4.025673804 1.563819439 t1.3006 4.6295 l0 10.064 q-0.3406339373 0.06193344314 -0.7741680393 0.09290016472 t-0.77417 0.030967 t-0.75868 -0.030967 t-0.75868 -0.0929 l0 -9.2281 q0 -2.198637232 -0.6812678746 -3.236022404 t-2.1677 -1.0374 q-0.867068204 0 -1.641236243 0.3096672157 t-1.3625 0.95997 t-0.94449 1.6877 t-0.35612 2.4928 l0 8.0513 q-0.3406339373 0.06193344314 -0.7586846785 0.09290016472 t-0.75868 0.030967 t-0.77417 -0.030967 t-0.77417 -0.0929 l0 -15.886 z M249.07397505215053 34.280165886117985 q0.8361014824 0.3406339373 1.842519934 0.5419176275 t1.9974 0.20128 q0.7122345962 0 1.362535749 -0.1548336079 t1.1303 -0.4645 t0.77417 -0.75868 t0.29418 -1.0064 q0 -0.6193344314 -0.2322504118 -1.021901812 t-0.61933 -0.68127 t-0.89803 -0.47998 t-1.0993 -0.38708 l-1.0838 -0.40257 q-1.981870181 -0.7432013177 -2.879905106 -1.672202965 t-0.89803 -2.5083 q0 -2.105737067 1.501885996 -3.34440593 t4.4128 -1.2387 q1.207702141 0 2.3689542 0.2322504118 t2.0283 0.54192 q-0.06193344314 0.6193344314 -0.2322504118 1.238668863 t-0.41805 1.1458 q-0.6812678746 -0.2477337726 -1.625752883 -0.4799841844 t-2.0283 -0.23225 q-1.145768698 0 -2.028320263 0.4025673804 t-0.88255 1.4245 q0 0.5264342667 0.216767051 0.8980349256 t0.58837 0.63482 t0.85158 0.44902 t1.0374 0.3716 l1.3625 0.4645 q0.7432013177 0.2477337726 1.408985832 0.5883677099 t1.1458 0.85158 t0.77417 1.2387 t0.29418 1.7496 q0 1.145768698 -0.4645008236 2.090253706 t-1.3161 1.6103 t-2.0593 1.0374 t-2.6631 0.3716 q-1.486402635 0 -2.601204612 -0.2012836902 t-2.0748 -0.54192 q0.06193344314 -0.6193344314 0.2632171334 -1.254152224 t0.44902 -1.2542 z" style="fill: #004466;"/></g><defs id="SvgjsDefs1027"/><g id="SvgjsG1029" rel="mainfill" transform="translate(93.28039515018463,-43.599021911621094) scale(1)" fill="#004466"><path fill="#004466" d="M70.741 129.16500000000002 q0 0.654 -0.4905 1.1445 t-1.1445 0.4905 q-1.308 0 -1.635 -1.09 l-31.719 -80.006 l-3.597 9.265 q0.436 0.872 1.853 4.36 t3.488 8.5565 t4.469 11.227 t4.905 12.48 t4.8505 12.317 t4.142 10.682 t2.8885 7.5755 t1.09 2.9975 q0 1.199 -1.09 1.526 q-0.218 0 -0.327 0.0545 t-0.327 0.0545 q-1.09 0 -1.526 -1.09 l-26.16 -66.054 l-25.397 66.054 q-0.436 1.09 -1.635 1.09 q-0.218 0 -0.2725 -0.0545 t-0.2725 -0.0545 q-1.09 -0.327 -1.09 -1.635 q0 -0.109 1.308 -3.597 t3.4335 -9.047 t4.905 -12.753 t5.668 -14.77 t5.777 -14.988 t5.232 -13.57 t3.9785 -10.355 t2.071 -5.3955 q0.436 -0.981 1.635 -0.981 t1.526 0.981 q0.436 1.199 2.1255 5.3955 t4.0875 10.355 t5.3955 13.57 t5.995 14.988 t5.886 14.77 t5.0685 12.807 t3.5425 9.1015 t1.3625 3.597 z" style="fill: #004466;"/></g></g></svg>